<?xml version="1.0" encoding="utf-8"?>
<svg version="1.2" baseProfile="tiny-ps" xmlns="http://www.w3.org/2000/svg" width="1069px" height="1307px" viewBox="0 0 1069 1307" preserveAspectRatio="xMidYMid meet">
 <g fill="#808080">
  <path d="M194 1299.6 l-5.1 -6.3 -4.2 1.4 c-3 1.1 -7.2 1.4 -14.2 1.1 -9.1 -0.3 -10.6 -0.7 -16.3 -3.8 -9.6 -5.1 -15.2 -12.6 -18.9 -25.3 -2.1 -6.8 -3.1 -86 -1.3 -99.4 3.2 -24.5 15.9 -36.5 38.5 -36.5 19.1 0 30.8 8.4 36.7 26.2 2.1 6.2 2.2 8.6 2.6 49.9 0.4 50.6 -0.1 56.5 -6.2 71.1 -0.4 1.1 3 5.9 10.4 14.8 l11.1 13.2 -14 0 -13.9 0 -5.2 -6.4z m-28 -34.6 l-8.1 -10 13.4 0 c13.3 0 13.5 0 15.1 2.5 0.9 1.4 2.1 2.5 2.7 2.5 0.6 0 0.9 -16.1 0.7 -48.2 l-0.3 -48.3 -2.3 -4.3 c-5.8 -10.9 -24.5 -10.6 -29.7 0.5 -1 2 -2.1 6.9 -2.6 10.7 -1.1 9.9 -1 76.5 0.1 85.5 1.6 12.4 7.1 19.1 15.8 19.1 l3.3 0 -8.1 -10z"/>
  <path d="M260 1224 l0 -72 -18 0 -18 0 0 -11 0 -11 47 0 47 0 0 11 0 11 -18 0 -18 0 0 72 0 72 -11 0 -11 0 0 -72z"/>
  <path d="M353.3 1294.2 c-11 -3.9 -18.1 -11.1 -22.5 -22.7 -2.2 -5.9 -2.2 -7.1 -2.6 -54.2 -0.3 -50 -0.1 -54.2 3.9 -64.8 2.6 -7.1 10 -15 17.1 -18.3 6.6 -3 16.3 -4.3 24.5 -3.1 16.2 2.2 26.8 12.4 30.8 29.1 2.2 9.4 2.2 97.7 0 106.3 -3.5 13.5 -9.5 21.3 -20.4 26.3 -7.6 3.5 -22.9 4.2 -30.8 1.4z m23.4 -21.2 c1.8 -1 4.2 -3.9 5.5 -6.2 l2.3 -4.3 0 -49 0 -49 -2.3 -4.3 c-3.2 -6 -7.2 -8.2 -15.2 -8.2 -8.3 0 -12.3 2.3 -15.3 8.8 -2.2 4.6 -2.2 5.5 -2.2 52.2 0 43.8 0.1 47.9 1.8 52.3 2.7 6.9 7.2 9.7 15.7 9.7 4.7 0 7.4 -0.6 9.7 -2z"/>
  <path d="M488 1213.5 l0 -82.5 10.5 0 10.5 0 0 36 0 36 16 0 16 0 0 -36 0 -36 11 0 11 0 0 82.5 0 82.5 -11 0 -11 0 0 -36 0 -36 -16 0 -16 0 0 36 0 36 -10.5 0 -10.5 0 0 -82.5z"/>
  <path d="M605.2 1294.1 c-10 -3.7 -17.1 -10.7 -21 -20.6 -3.9 -9.9 -4.4 -17.7 -4 -65 0.4 -48.2 0.5 -49.1 6 -59.8 8.4 -16.7 33.8 -23.2 52.7 -13.5 10.6 5.4 16.9 15.6 19.1 30.6 1.5 10.7 1.2 88.2 -0.4 97.3 -2.6 14.3 -9.4 24.2 -20.5 29.6 -4.8 2.4 -7 2.8 -16.1 3.1 -8.4 0.2 -11.5 -0.1 -15.8 -1.7z m23.9 -21.4 c1.9 -1.2 4.5 -4.4 5.9 -7.2 l2.5 -5 0 -47 0 -47 -2.8 -5.6 c-3.3 -6.8 -6.9 -8.9 -15.2 -8.9 -8.5 0 -12.2 2.2 -15.4 8.9 l-2.6 5.6 0 47 0 47 2.5 5 c3.5 7 7.6 9.5 15.5 9.5 4.8 0 7 -0.5 9.6 -2.3z"/>
  <path d="M696.3 1294.6 c-13.5 -4.4 -21.1 -13.8 -23.9 -29.5 -1 -5.8 -1.3 -22.4 -1.4 -71.3 l0 -63.8 10.4 0 10.5 0 0.3 66.3 c0.3 66.2 0.3 66.2 2.5 70.7 2.9 5.9 7 8.3 14 8.3 6.2 0 9.6 -2 12.8 -7.4 1.9 -3.3 2 -5.5 2.3 -70.6 l0.3 -67.3 10.5 0 10.5 0 -0.3 69.3 -0.3 69.2 -2.4 5.9 c-3.3 7.8 -10.6 15.7 -17.3 18.7 -6.6 2.8 -21.9 3.7 -28.5 1.5z"/>
  <path d="M790.5 1295.1 c-6.1 -1.6 -10.5 -4 -15 -8.2 -8.4 -7.8 -12.1 -18.1 -13.2 -36.6 l-0.6 -11.3 11 0 11.1 0 0.4 11.8 c0.6 18.6 4.2 23.7 17.1 23.7 6 0 7.8 -0.4 10.6 -2.4 4.3 -3.1 7.3 -9.9 7.9 -18.1 1 -15 -3.2 -20.3 -23.6 -30.2 -11.6 -5.6 -15.3 -7.9 -20.2 -12.7 -12.6 -12.4 -16.8 -30.7 -11.3 -50.1 5.9 -21.3 22.8 -32.9 43.7 -29.9 12.2 1.7 21 7.6 26.4 17.7 4.4 8.2 6.2 16.8 6.2 29.5 l0 10.7 -10.4 0 -10.3 0 -0.5 -11.9 c-0.8 -19.6 -5.3 -25.6 -18.5 -24.9 -7.6 0.5 -10.8 2.5 -14.3 9.4 -3.5 6.9 -4.1 21.2 -1.1 27.1 3.4 6.8 8 10.3 20.9 16.4 15.1 7.2 20.1 10.7 25.8 18.2 13 17.3 10.9 47.2 -4.2 62.4 -7 6.9 -13.9 9.7 -25.4 10 -5.2 0.1 -10.8 -0.2 -12.5 -0.6z"/>
  <path d="M852 1213.5 l0 -82.5 34 0 34 0 0 10.5 0 10.5 -23.5 0 -23.5 0 0 25.5 0 25.5 23.5 0 23.5 0 0 10.5 0 10.5 -23.5 0 -23.5 0 0 25.5 0 25.5 23.5 0 23.5 0 0 10.5 0 10.5 -34 0 -34 0 0 -82.5z"/>
  <path d="M170 793.4 c0 -17.5 0.7 -145.3 1.5 -283.9 l1.6 -252 56.2 -55.7 56.2 -55.6 0.3 28.6 c0.2 15.8 -0.4 134.2 -1.3 263.2 -0.8 129 -1.5 245.2 -1.5 258.2 l0 23.6 -50.7 47.3 c-28 26.1 -53.4 49.8 -56.5 52.8 l-5.8 5.4 0 -31.9z m93.3 -396.1 c-3.4 -0.2 -9.3 -0.2 -13 0 -3.7 0.2 -0.9 0.3 6.2 0.3 7.2 0 10.2 -0.1 6.8 -0.3z m0 -25 c-3.4 -0.2 -9.3 -0.2 -13 0 -3.7 0.2 -0.9 0.3 6.2 0.3 7.2 0 10.2 -0.1 6.8 -0.3z m0 -31 c-3.4 -0.2 -9.3 -0.2 -13 0 -3.7 0.2 -0.9 0.3 6.2 0.3 7.2 0 10.2 -0.1 6.8 -0.3z m0 -31 c-3.4 -0.2 -9.3 -0.2 -13 0 -3.7 0.2 -0.9 0.3 6.2 0.3 7.2 0 10.2 -0.1 6.8 -0.3z m0 -31 c-3.4 -0.2 -9.3 -0.2 -13 0 -3.7 0.2 -0.9 0.3 6.2 0.3 7.2 0 10.2 -0.1 6.8 -0.3z"/>
  <path d="M367.4 741.9 c-23 -19.2 -42.2 -35.5 -42.7 -36.2 -0.4 -0.7 -4.8 -81.7 -9.7 -180.2 -5 -98.4 -9.9 -195.8 -11.1 -216.4 -1.1 -20.5 -1.8 -37.5 -1.6 -37.8 0.2 -0.2 24.3 21.9 53.4 49.1 l53 49.5 0.7 203.1 c0.5 111.7 0.6 203.3 0.4 203.5 -0.2 0.3 -19.3 -15.3 -42.4 -34.6z m13.9 -181.6 c-3.4 -0.2 -9.3 -0.2 -13 0 -3.7 0.2 -0.9 0.3 6.2 0.3 7.2 0 10.2 -0.1 6.8 -0.3z m0 -31 c-3.4 -0.2 -9.3 -0.2 -13 0 -3.7 0.2 -0.9 0.3 6.2 0.3 7.2 0 10.2 -0.1 6.8 -0.3z m0 -25 c-3.4 -0.2 -9.3 -0.2 -13 0 -3.7 0.2 -0.9 0.3 6.2 0.3 7.2 0 10.2 -0.1 6.8 -0.3z m0 -32 c-3.4 -0.2 -9.3 -0.2 -13 0 -3.7 0.2 -0.9 0.3 6.2 0.3 7.2 0 10.2 -0.1 6.8 -0.3z m0 -31 c-3.4 -0.2 -9.3 -0.2 -13 0 -3.7 0.2 -0.9 0.3 6.2 0.3 7.2 0 10.2 -0.1 6.8 -0.3z m0 -31 c-3.4 -0.2 -9.3 -0.2 -13 0 -3.7 0.2 -0.9 0.3 6.2 0.3 7.2 0 10.2 -0.1 6.8 -0.3z"/>
  <path d="M434 530 l0 -222.1 58.7 -67.7 c32.2 -37.2 60.4 -69.6 62.5 -71.9 l3.8 -4.3 0 236.3 0 236.2 -28.7 26.5 c-15.8 14.6 -43.9 40.6 -62.5 57.8 l-33.8 31.3 0 -222.1z m36.7 68.8 c-0.1 -9 -0.3 -1.9 -0.3 15.7 0 17.6 0.2 24.9 0.3 16.3 0.2 -8.6 0.2 -23 0 -32z m19 17.4 c-0.1 -5.3 -0.3 -0.7 -0.3 10.3 0 11 0.2 15.4 0.3 9.7 0.2 -5.7 0.2 -14.7 0 -20z m-1 -81.4 c-0.1 -12.3 -0.2 -2.3 -0.2 22.2 0 24.5 0.1 34.5 0.2 22.3 0.2 -12.3 0.2 -32.3 0 -44.5z m-19 -24 c-0.1 -12.3 -0.2 -2.3 -0.2 22.2 0 24.5 0.1 34.5 0.2 22.3 0.2 -12.3 0.2 -32.3 0 -44.5z m18 -70.5 c-0.1 -12.5 -0.2 -2.5 -0.2 22.2 0 24.8 0.1 35 0.2 22.8 0.2 -12.2 0.2 -32.4 0 -45z m-19 -23.6 c-0.1 -12.2 -0.2 -2.2 -0.2 22.3 0 24.5 0.1 34.5 0.2 22.2 0.2 -12.2 0.2 -32.2 0 -44.5z m18 -60.4 c-0.1 -10.4 -0.2 -1.9 -0.2 18.7 0 20.6 0.1 29.1 0.2 18.8 0.2 -10.4 0.2 -27.2 0 -37.5z m-19 -5.5 c-0.1 -7.3 -0.3 -1.6 -0.3 12.7 0 14.3 0.2 20.3 0.3 13.3 0.2 -7 0.2 -18.7 0 -26z"/>
  <path d="M666.5 615.6 l-54.9 -48.6 -3.6 3.3 c-5 4.7 -25.1 22.8 -27.8 25.1 l-2.2 1.9 0.2 -267.7 0.3 -267.8 71.5 -30.3 71.5 -30.4 0.3 166 c0.1 91.4 0.1 240.5 0 331.6 l-0.3 165.5 -55 -48.6z m7.3 -436.3 c-11.5 -0.2 -30.1 -0.2 -41.5 0 -11.5 0.1 -2.1 0.2 20.7 0.2 22.8 0 32.2 -0.1 20.8 -0.2z m0 -25 c-11.5 -0.2 -30.1 -0.2 -41.5 0 -11.5 0.1 -2.1 0.2 20.7 0.2 22.8 0 32.2 -0.1 20.8 -0.2z m0 -25 c-11.5 -0.2 -30.1 -0.2 -41.5 0 -11.5 0.1 -2.1 0.2 20.7 0.2 22.8 0 32.2 -0.1 20.8 -0.2z"/>
 </g>
 <g fill="#f2b60f">
  <path d="M2.6 1146.8 c1 -1.5 25.1 -19.2 37.4 -27.5 95.8 -63.8 227.2 -113 365 -136.7 70.1 -12.1 126.1 -17.2 200.5 -18.3 125.5 -1.8 249.8 13.5 371.8 45.7 32.2 8.5 91 26.6 87.2 26.9 -0.6 0.1 -11 -1.2 -23 -2.9 -160.9 -21.6 -262.8 -28.9 -389 -27.7 -59.3 0.6 -72.4 1 -117.5 4.2 -189.6 13.4 -379.4 60.7 -515.6 128.4 -9.5 4.7 -17 8.3 -16.8 7.9z"/>
  <path d="M269 943 l0 -16 16 0 16 0 0 16 0 16 -16 0 -16 0 0 -16z"/>
  <path d="M318 943 l0 -16 16 0 16 0 0 16 0 16 -16 0 -16 0 0 -16z"/>
  <path d="M59.5 955.2 c1.1 -1.1 56.2 -51.3 122.5 -111.7 66.3 -60.4 121.9 -111 123.5 -112.5 l3 -2.8 45.3 41.4 c24.9 22.8 45.5 41.4 45.8 41.4 0.3 0 49.3 -44.6 109 -99.1 59.7 -54.4 109.1 -99.2 109.9 -99.5 0.8 -0.3 75.6 67.2 185.2 167.1 101.1 92.3 185.4 169.3 187.3 171.3 l3.5 3.6 -3.5 -2.6 c-1.9 -1.3 -85.4 -61.8 -185.4 -134.3 -100.1 -72.5 -182.5 -131.8 -183.1 -131.8 -0.6 0 -42.9 35.7 -93.9 79.3 l-92.8 79.3 3.9 3.7 c2.1 2 29.1 26.8 60 55 31 28.1 56.3 51.4 56.3 51.7 0 0.3 -1.5 -0.4 -3.2 -1.4 -128.5 -75.4 -240.2 -140.6 -241.6 -140.9 -1 -0.3 -52.7 29 -127.7 72.1 -69.3 39.9 -125.1 71.7 -124 70.7z"/>
  <path d="M269 898.5 l0 -16.5 16 0 16 0 0 16.5 0 16.5 -16 0 -16 0 0 -16.5z"/>
  <path d="M318 898.5 l0 -16.5 16 0 16 0 0 16.5 0 16.5 -16 0 -16 0 0 -16.5z"/>
  <path d="M608 875 l0 -20 19.5 0 19.5 0 0 20 0 20 -19.5 0 -19.5 0 0 -20z"/>
  <path d="M667 875 l0 -20 20 0 20 0 0 20 0 20 -20 0 -20 0 0 -20z"/>
  <path d="M608 821 l0 -20 19.5 0 19.5 0 0 20 0 20 -19.5 0 -19.5 0 0 -20z"/>
  <path d="M667 821 l0 -20 20 0 20 0 0 20 0 20 -20 0 -20 0 0 -20z"/>
 </g>
 <g fill="#ffffff">
  <path d="M467.5 648.8 c-0.3 -1 -3.6 -290.4 -3.5 -309.5 0 -4.2 0.1 -4.3 3.5 -4.3 l3.5 0 0 12.8 c0 7 0.7 69.2 1.5 138.2 0.8 69 1.5 134.2 1.5 144.8 l0 19.2 -3 0 c-1.7 0 -3.2 -0.6 -3.5 -1.2z"/>
  <path d="M486 642.8 c0 -4 -0.7 -64 -1.5 -133.3 -0.8 -69.3 -1.5 -136.9 -1.5 -150.2 l0 -24.3 3.5 0 3.5 0 0 21.3 c0 11.6 0.7 82.1 1.5 156.5 0.9 74.4 1.3 135.7 1 136.3 -0.4 0.5 -1.9 0.9 -3.6 0.9 l-2.9 0 0 -7.2z"/>
  <path d="M359 560.5 l0 -3.5 16.1 0 16 0 -0.3 3.3 -0.3 3.2 -15.7 0.3 -15.8 0.3 0 -3.6z"/>
  <path d="M359 529.5 l0 -3.5 16.1 0 16 0 -0.3 3.3 -0.3 3.2 -15.7 0.3 -15.8 0.3 0 -3.6z"/>
  <path d="M359 504.5 l0 -3.5 16.1 0 16 0 -0.3 3.3 -0.3 3.2 -15.7 0.3 -15.8 0.3 0 -3.6z"/>
  <path d="M359 472.5 l0 -3.6 15.8 0.3 15.7 0.3 0.3 3.3 0.3 3.2 -16 0 -16.1 0 0 -3.5z"/>
  <path d="M359 441.5 l0 -3.6 15.8 0.3 15.7 0.3 0.3 3.3 0.3 3.2 -16 0 -16.1 0 0 -3.5z"/>
  <path d="M359 410.5 l0 -3.5 16.1 0 16 0 -0.3 3.3 -0.3 3.2 -15.7 0.3 -15.8 0.3 0 -3.6z"/>
  <path d="M240.2 397.8 l0.3 -3.3 15.8 -0.3 15.7 -0.3 0 3.6 0 3.5 -16.1 0 -16 0 0.3 -3.2z"/>
  <path d="M240.2 372.8 l0.3 -3.3 15.8 -0.3 15.7 -0.3 0 3.6 0 3.5 -16.1 0 -16 0 0.3 -3.2z"/>
  <path d="M240.2 341.8 l0.3 -3.3 15.8 -0.3 15.7 -0.3 0 3.6 0 3.5 -16.1 0 -16 0 0.3 -3.2z"/>
  <path d="M240.7 313.3 c-0.4 -0.3 -0.7 -1.9 -0.7 -3.5 l0 -2.8 16 0 16 0 0 3.5 0 3.5 -15.3 0 c-8.5 0 -15.7 -0.3 -16 -0.7z"/>
  <path d="M240.7 282.3 c-0.4 -0.3 -0.7 -1.9 -0.7 -3.5 l0 -2.8 16 0 16 0 0 3.5 0 3.5 -15.3 0 c-8.5 0 -15.7 -0.3 -16 -0.7z"/>
  <path d="M609 179.5 l0 -3.5 44 0 44 0 0 3.5 0 3.5 -44 0 -44 0 0 -3.5z"/>
  <path d="M609 154.5 l0 -3.5 44 0 44 0 0 3.5 0 3.5 -44 0 -44 0 0 -3.5z"/>
  <path d="M609 129.5 l0 -3.5 44 0 44 0 0 3.5 0 3.5 -44 0 -44 0 0 -3.5z"/>
 </g>
</svg>