<svg id="Layer_1" data-name="Layer 1" xmlns="http://www.w3.org/2000/svg" viewBox="0 0 320 320"><defs><style>.cls-1{fill:#f79237;}.cls-2{fill:#fff;}</style></defs><path class="cls-1" d="M212.85,128.68h33.6v10.9h-22V154.8h12.48v10.81H224.41v14.72h22v10.81h-33.6Z"/><path class="cls-1" d="M304.92,128.76,261,191.14H250.53V128.76h22.2v10.73H262.09V170.6h.08l28.61-41.84Z"/><path class="cls-1" d="M156.44,191.63c6.58,0,12.25,0,17.93,0,15.09-.13,28.19-9,32.53-22,4.51-13.51-.86-27.65-13.3-35.74-11.38-7.4-24.2-5.15-36.69-5.24C183.91,141.65,185.57,176.86,156.44,191.63Z"/><path class="cls-2" d="M78.42,160.27a30.28,30.28,0,0,1-2.15,11.39,31.47,31.47,0,0,1-5.93,9.55l7.15,10.43H64.62l-8.57-12.7a23.69,23.69,0,0,0,7.82-7.23,20.76,20.76,0,0,0,3.28-11.53,21.25,21.25,0,0,0-1.56-8.11,21.49,21.49,0,0,0-4.29-6.73,20.05,20.05,0,0,0-6.47-4.59,19.64,19.64,0,0,0-8.12-1.68,19.32,19.32,0,0,0-8.08,1.68,20.1,20.1,0,0,0-6.43,4.59,21.49,21.49,0,0,0-4.29,6.73,21.68,21.68,0,0,0,0,16.15,20.64,20.64,0,0,0,4.33,6.68,21.2,21.2,0,0,0,6.48,4.55,19.07,19.07,0,0,0,8,1.68,21,21,0,0,0,4.62-.51l6.15,9.17a30,30,0,0,1-5.22,1.39,32.65,32.65,0,0,1-5.55.46,31,31,0,0,1-12.24-2.44,31.6,31.6,0,0,1-10-6.68,32.42,32.42,0,0,1-6.82-10,30.12,30.12,0,0,1-2.52-12.28,31.2,31.2,0,0,1,2.48-12.37A31.52,31.52,0,0,1,34.39,131a30.68,30.68,0,0,1,12.32-2.48A31,31,0,0,1,59.07,131,31.42,31.42,0,0,1,75.94,147.9,31.2,31.2,0,0,1,78.42,160.27Z"/><path class="cls-2" d="M111.79,128.72v10.77H94.15v52.15H82.46V128.72Z"/><path class="cls-2" d="M141.34,191.64a31,31,0,0,1-12.24-2.44,31.67,31.67,0,0,1-16.95-16.65,30.12,30.12,0,0,1-2.52-12.28,30.94,30.94,0,0,1,2.48-12.41,31.46,31.46,0,0,1,6.81-10.05A32.37,32.37,0,0,1,129,131a32,32,0,0,1,24.69,0,31.73,31.73,0,0,1,10.1,6.77,32.46,32.46,0,0,1,6.81,10.05,30.63,30.63,0,0,1,2.52,12.41,30.12,30.12,0,0,1-2.52,12.28,31.76,31.76,0,0,1-17,16.65A31.21,31.21,0,0,1,141.34,191.64Zm0-52.49a19.45,19.45,0,0,0-8,1.69,20.89,20.89,0,0,0-6.51,4.54,20.54,20.54,0,0,0-4.34,6.69,21.44,21.44,0,0,0-1.55,8.11,20.22,20.22,0,0,0,1.6,8,21.52,21.52,0,0,0,4.33,6.65,20.38,20.38,0,0,0,6.47,4.54,20.05,20.05,0,0,0,16.07,0,20.42,20.42,0,0,0,6.48-4.54,21.89,21.89,0,0,0,4.33-6.65,20.39,20.39,0,0,0,1.6-8,21.44,21.44,0,0,0-5.85-14.8,20.31,20.31,0,0,0-6.48-4.54A19.57,19.57,0,0,0,141.34,139.15Z"/></svg>